<?xml version="1.0" encoding="UTF-8"?> <!-- Generator: Adobe Illustrator 23.1.1, SVG Export Plug-In . SVG Version: 6.00 Build 0) --> <svg xmlns="http://www.w3.org/2000/svg" xmlns:xlink="http://www.w3.org/1999/xlink" id="logo-dbs-bianco" x="0px" width="145" height="89" y="0px" viewBox="0 0 145 89" style="enable-background:new 0 0 145 89;" xml:space="preserve"> <style type="text/css"> .st0{fill:#FFFFFF;} </style> <g> <g> <path class="st0" d="M19.07,82.06c0.03,0.08,0.08,0.16,0.08,0.27c0,0.49-2.16,1.25-3.71,1.25c-3,0-5.07-1.77-5.07-5.32 c0-5.62,3.44-9.08,7.58-9.08c2.13,0,3.65,0.95,3.65,1.23c0,0.08-0.11,0.25-0.16,0.33l-1.04,1.69c-0.08,0.14-0.16,0.16-0.25,0.16 c-0.25,0-0.68-0.68-2.4-0.68c-2.46,0-3.93,3.14-3.93,6.63c0,1.5,0.68,2.19,2.02,2.19c1.28,0,1.99-0.63,2.32-0.63 c0.08,0,0.19,0.08,0.22,0.14L19.07,82.06z"></path> <path class="st0" d="M26.05,83.59c-2.86,0-4.64-1.47-4.64-4.96c0-5.05,3.22-9.44,7.75-9.44c2.76,0,4.47,1.47,4.47,4.97 C33.64,79.19,30.47,83.59,26.05,83.59 M30.17,73.9c0-1.28-0.49-1.99-1.66-1.99c-2.54,0-3.63,4.31-3.63,6.96 c0,1.28,0.49,1.99,1.66,1.99C29.08,80.86,30.17,76.55,30.17,73.9"></path> <path class="st0" d="M45.26,82.79c-0.05,0.3-0.11,0.33-0.38,0.33h-2.54c-0.22,0-0.35-0.05-0.35-0.27c0-0.08,0.03-0.19,0.03-0.3 l1.8-7.77c0.14-0.55,0.25-1.09,0.25-1.66c0-0.63-0.25-1.06-0.82-1.06c-2.51,0-3.41,3.38-3.85,5.35l-1.17,5.4 c-0.05,0.3-0.11,0.33-0.38,0.33H35.3c-0.22,0-0.35-0.05-0.35-0.27c0-0.08,0.03-0.19,0.03-0.3l1.85-8.21 c0.16-0.68,0.33-1.36,0.33-2.24c0-0.82-0.25-1.2-0.25-1.69c0-0.19,0.19-0.24,0.33-0.3l2.18-0.85c0.08-0.03,0.14-0.08,0.27-0.08 c0.3,0,0.54,1.23,0.54,2.76c0.74-0.87,2.29-2.76,4.53-2.76c1.77,0,2.75,1.37,2.75,2.86c0,0.71-0.11,1.45-0.27,2.13L45.26,82.79z"></path> <path class="st0" d="M58.02,72.24c-0.08,0.16-0.16,0.19-0.22,0.19c-0.52,0-1.42-0.79-2.67-0.79c-1.47,0-2.13,0.76-2.13,1.69 c0,1.36,1.8,1.61,3,2.29c1.34,0.77,1.99,1.36,1.99,3.14c0,2.86-1.94,4.83-5.4,4.83c-2.07,0-4.45-0.9-4.45-1.25 c0-0.11,0.03-0.19,0.06-0.3l0.57-1.69c0.05-0.13,0.11-0.19,0.19-0.19c0.35,0,1.69,0.98,3.47,0.98c1.61,0,2.43-0.66,2.43-1.83 c0-1.2-1.23-1.31-2.65-2.1c-1.45-0.79-2.34-1.31-2.34-3.19c0-2.89,2.1-4.83,5.21-4.83c1.42,0,3.57,0.55,3.57,1.25 c0,0.08-0.02,0.14-0.05,0.22L58.02,72.24z"></path> <path class="st0" d="M68.23,83.5c-0.08,0.03-0.14,0.08-0.27,0.08c-0.3,0-0.54-1.23-0.54-2.76c-0.74,0.87-2.29,2.76-4.53,2.76 c-1.77,0-2.75-1.37-2.75-2.86c0-0.71,0.14-1.45,0.3-2.13l1.99-8.54c0.03-0.22,0.08-0.25,0.38-0.32l2.24-0.47 c0.14-0.03,0.27-0.08,0.41-0.08c0.27,0,0.38,0.08,0.38,0.27c0,0.11-0.03,0.3-0.06,0.41l-1.94,8.13c-0.11,0.54-0.24,1.09-0.24,1.67 c0,0.63,0.24,1.06,0.82,1.06c2.54,0,3.46-3.38,3.87-5.35l1.17-5.32c0.03-0.22,0.08-0.25,0.38-0.32l2.24-0.47 c0.14-0.03,0.27-0.08,0.41-0.08c0.27,0,0.38,0.08,0.38,0.27c0,0.11-0.03,0.22-0.05,0.33l-1.99,8.65 c-0.14,0.68-0.33,1.36-0.33,2.23c0,0.82,0.25,1.2,0.25,1.69c0,0.19-0.19,0.25-0.33,0.3L68.23,83.5z"></path> <path class="st0" d="M79.66,82.52c0,0.08,0.03,0.19,0.03,0.27c0,0.41-1.69,0.79-2.76,0.79c-1.58,0-2.65-0.52-2.65-2.29 c0-0.98,0.11-1.94,0.33-2.89l3.03-14c0.06-0.27,0.08-0.38,0.49-0.46l2.4-0.49c0.11-0.03,0.3-0.08,0.38-0.08 c0.11,0,0.14,0.08,0.14,0.27c0,0.16-0.05,0.38-0.08,0.54l-3.08,14.19c-0.14,0.65-0.33,1.34-0.33,1.72c0,0.38,0.22,0.55,0.63,0.55 c0.46,0,0.87-0.19,1.01-0.19c0.08,0,0.16,0.03,0.19,0.19L79.66,82.52z"></path> <path class="st0" d="M90.4,82.14c0,0.08,0.03,0.16,0.03,0.25c0,0.43-2.62,1.2-4.36,1.2c-1.96,0-3.27-0.74-3.27-2.75 c0-0.6,0.08-1.17,0.22-1.75l1.47-6.98h-1.8c-0.25,0-0.35-0.08-0.35-0.27c0-0.14,0.03-0.25,0.05-0.35l0.33-1.5 c0.03-0.24,0.16-0.33,0.38-0.33H85l0.71-3.38c0.05-0.24,0.19-0.27,0.35-0.3l2.48-0.35c0.11,0,0.22-0.03,0.35-0.03 c0.11,0,0.19,0.11,0.19,0.24c0,0.11-0.03,0.25-0.05,0.38l-0.77,3.44h3.66c0.25,0,0.38,0.11,0.38,0.27c0,0.14-0.08,0.25-0.11,0.38 l-0.55,1.53c-0.11,0.25-0.13,0.27-0.38,0.27h-3.52l-1.31,6.46c-0.11,0.44-0.19,0.88-0.19,1.31c0,0.66,0.35,0.98,1.06,0.98 c1.23,0,2.29-0.63,2.46-0.63c0.14,0,0.16,0.05,0.22,0.19L90.4,82.14z"></path> <path class="st0" d="M96.16,82.79c-0.05,0.3-0.11,0.33-0.38,0.33h-2.53c-0.22,0-0.35-0.05-0.35-0.27c0-0.08,0-0.19,0.03-0.3 l2.21-10.45h-2.07c-0.24,0-0.35-0.08-0.35-0.27c0-0.11,0.03-0.22,0.06-0.33l0.3-1.53c0.05-0.3,0.14-0.33,0.41-0.33h5.08 c0.22,0,0.32,0.08,0.32,0.25c0,0.11,0,0.27-0.03,0.35L96.16,82.79z M98.01,67.87c-1.23,0-2.24-0.98-2.24-2.27 c0-1.36,1.15-2.24,2.24-2.24c1.12,0,2.26,0.9,2.26,2.24C100.28,66.89,99.24,67.87,98.01,67.87"></path> <path class="st0" d="M110.45,82.79c-0.05,0.3-0.11,0.33-0.38,0.33h-2.54c-0.22,0-0.35-0.05-0.35-0.27c0-0.08,0.03-0.19,0.03-0.3 l1.8-7.77c0.14-0.55,0.25-1.09,0.25-1.66c0-0.63-0.25-1.06-0.82-1.06c-2.51,0-3.41,3.38-3.85,5.35l-1.17,5.4 c-0.05,0.3-0.11,0.33-0.38,0.33h-2.54c-0.22,0-0.35-0.05-0.35-0.27c0-0.08,0.03-0.19,0.03-0.3l1.86-8.21 c0.16-0.68,0.33-1.36,0.33-2.24c0-0.82-0.25-1.2-0.25-1.69c0-0.19,0.19-0.24,0.33-0.3l2.18-0.85c0.08-0.03,0.14-0.08,0.28-0.08 c0.3,0,0.55,1.23,0.55,2.76c0.74-0.87,2.29-2.76,4.53-2.76c1.77,0,2.76,1.37,2.76,2.86c0,0.71-0.11,1.45-0.27,2.13L110.45,82.79z"></path> <path class="st0" d="M125.35,78.16c-0.96,4.53-0.35,10.75-7.28,10.75c-2.27,0-4.94-0.85-4.94-1.39c0-0.11,0.05-0.19,0.08-0.27 l0.84-1.99c0.06-0.14,0.14-0.19,0.25-0.19c0.44,0,1.83,1.12,4.01,1.12c3.41,0,2.81-3,3.57-5.29l-0.05-0.05 c-0.44,0.57-1.8,2.29-4.04,2.29c-2.4,0-3.44-1.91-3.44-4.42c0-4.28,2.51-9.52,6.49-9.52c1.86,0,2.59,0.96,3.22,1.61 c0.25-0.35,1.06-1.61,1.5-1.61c0.11,0,0.27,0.11,0.38,0.16l1.66,0.9c0.14,0.08,0.19,0.16,0.19,0.27c0,0.27-1.23,1.74-1.61,3.6 L125.35,78.16z M123.25,72.62c-0.35-0.33-1.04-0.98-2.12-0.98c-2.24,0-3.49,4.36-3.49,7.15c0,1.28,0.44,1.88,1.39,1.88 c1.77,0,2.83-1.53,3.27-3.6L123.25,72.62z"></path> </g> <path class="st0" d="M48.79,58.91C28.03,62.04,10.51,66.64,0,71.46c7.22-5.4,23.96-10.89,45.28-14.84 c7.36-1.36,15.25-2.54,23.5-3.47c2.59-0.29,5.15-0.55,7.68-0.78c37.58-3.4,67.59,0.07,68.52,8.29c0.38,3.36-4.2,7.04-12.27,10.54 c3.82-2.36,5.83-4.73,5.58-6.94c-0.87-7.76-29.01-11.1-64.9-8.21c-3.68,0.3-7.43,0.66-11.26,1.09 C57.56,57.67,53.11,58.26,48.79,58.91z"></path> <g> <path class="st0" d="M19.19,1.2h19.96c7.95,0,17.97,5.29,17.24,20.33c-0.73,15.37-9.77,25.76-24.82,25.76H10.15L19.19,1.2z M25.87,35.48h6.43c8.74,0,10.74-9.62,10.74-13.88c0-6.9-3.34-8.59-7.83-8.59H30.3L25.87,35.48z"></path> <path class="st0" d="M60.86,1.2h22.27c9.41,0,12.93,3.49,12.93,10.13c0,5.81-2.73,9.62-7.95,11.1h-0.06v0.13 c4.01,0.9,6.56,4.97,6.56,9.23c0,11.1-8.38,15.49-17.84,15.49H51.88L60.86,1.2z M67.05,36.32h8.56c2.36,0,5.64-0.91,5.64-4.65 c0-3.42-2.37-3.94-5.16-3.94h-7.35L67.05,36.32z M70.39,19.14h7.53c2.12,0,4.79-0.84,4.79-3.68c0-2.77-1.76-3.29-4.13-3.29h-6.86 L70.39,19.14z"></path> <path class="st0" d="M99.52,44.02c1.05,0.9,2.22,1.67,3.51,2.29l-0.02,0.01c2.98,1.41,6.5,2.07,10.16,2.07 c5.2,0,10.62-1.61,14.43-4.92l0.02-0.01c1.21-1.05,2.25-2.28,3.07-3.68l-0.02,0.01c1.27-2.16,2.04-4.72,2.04-7.73 c0-5.49-2.55-9.88-10.08-12.72c-4.25-1.61-10.74-1.8-10.74-5.29c0-3.03,2.91-3.74,5.16-3.74c1.51,0,2.91,0.26,3.88,1.03 c0.97,0.78,1.58,1.94,1.52,3.81h12.32c0.24-11.36-8.07-15.04-17.3-15.04c-8.74,0-18.21,4.78-18.21,15.17 c0,7.69,5.1,10.66,10.39,12.52c6,2.13,10.44,2.58,10.44,5.94c0,3.03-3.21,4.45-5.83,4.45c-2.19,0-3.76-0.13-4.92-1.16 c-1.09-1.16-1.64-2.71-1.64-5.23H94.77c-0.26,5.55,1.63,9.55,4.72,12.23L99.52,44.02z"></path> </g> </g> </svg> 